{"glyphs":{"0":{"ha":1356,"x_min":68,"x_max":1289,"o":"m 339 0 q 68 271 68 0 l 68 746 q 339 1017 68 1017 l 1017 1017 q 1289 746 1289 1017 l 1289 271 q 1017 0 1289 0 l 339 0 m 136 271 q 339 68 136 68 l 1017 68 q 1221 271 1221 68 l 1221 746 q 1017 949 1221 949 l 339 949 q 136 746 136 949 l 136 271 z "},"1":{"ha":339,"x_min":68,"x_max":271,"o":"m 271 0 l 203 0 l 203 949 l 68 949 l 68 1017 l 271 1017 l 271 0 z "},"2":{"ha":1356,"x_min":68,"x_max":1289,"o":"m 1289 68 l 1289 0 l 68 0 l 68 271 q 339 543 68 543 l 1017 543 q 1221 746 1221 543 q 1017 949 1221 949 l 339 949 q 136 746 136 949 l 68 746 q 339 1017 68 1017 l 1017 1017 q 1289 746 1289 1017 q 1017 475 1289 475 l 339 475 q 136 271 136 475 l 136 68 l 1289 68 z "},"3":{"ha":1356,"x_min":68,"x_max":1289,"o":"m 339 0 q 68 271 68 0 l 136 271 q 339 68 136 68 l 1017 68 q 1221 271 1221 68 q 1017 475 1221 475 l 339 475 l 339 543 l 1017 543 q 1221 746 1221 543 q 1017 949 1221 949 l 339 949 q 136 746 136 949 l 68 746 q 339 1017 68 1017 l 1017 1017 q 1289 746 1289 1017 q 1175 509 1289 570 q 1289 271 1289 447 q 1017 0 1289 0 l 339 0 z "},"4":{"ha":1356,"x_min":68,"x_max":1289,"o":"m 1153 271 l 1289 271 l 1289 203 l 1153 203 l 1153 0 l 1085 0 l 1085 203 l 339 203 q 68 475 68 203 l 68 1017 l 136 1017 l 136 475 q 339 271 136 271 l 1085 271 l 1085 1017 l 1153 1017 l 1153 271 z "},"5":{"ha":1356,"x_min":68,"x_max":1289,"o":"m 1289 1017 l 1289 949 l 136 949 l 136 746 q 339 543 136 543 l 1017 543 q 1289 271 1289 543 q 1017 0 1289 0 l 339 0 q 68 271 68 0 l 136 271 q 339 68 136 68 l 1017 68 q 1221 271 1221 68 q 1017 475 1221 475 l 339 475 q 68 746 68 475 l 68 1017 l 1289 1017 z "},"6":{"ha":1356,"x_min":68,"x_max":1289,"o":"m 339 0 q 68 271 68 0 l 68 746 q 339 1017 68 1017 l 1017 1017 q 1289 746 1289 1017 l 1221 746 q 1017 949 1221 949 l 339 949 q 136 746 136 949 l 136 475 q 339 543 203 543 l 1017 543 q 1289 271 1289 543 q 1017 0 1289 0 l 339 0 m 136 271 q 339 68 136 68 l 1017 68 q 1221 271 1221 68 q 1017 475 1221 475 l 339 475 q 136 271 136 475 z "},"7":{"ha":1356,"x_min":0,"x_max":1356,"o":"m 1158 949 l 68 949 l 68 1017 l 1356 1017 l 115 0 l 0 0 l 1158 949 z "},"8":{"ha":1356,"x_min":68,"x_max":1289,"o":"m 339 0 q 68 271 68 0 q 181 509 68 447 q 68 746 68 570 q 339 1017 68 1017 l 1017 1017 q 1289 746 1289 1017 q 1175 509 1289 570 q 1289 271 1289 447 q 1017 0 1289 0 l 339 0 m 1221 746 q 1017 949 1221 949 l 339 949 q 136 746 136 949 q 339 543 136 543 l 1017 543 q 1221 746 1221 543 m 136 271 q 339 68 136 68 l 1017 68 q 1221 271 1221 68 q 1017 475 1221 475 l 339 475 q 136 271 136 475 z "},"9":{"ha":1356,"x_min":68,"x_max":1289,"o":"m 1017 1017 q 1289 746 1289 1017 l 1289 271 q 1017 0 1289 0 l 339 0 q 68 271 68 0 l 136 271 q 339 68 136 68 l 1017 68 q 1221 271 1221 68 l 1221 475 l 339 475 q 68 746 68 475 q 339 1017 68 1017 l 1017 1017 m 1221 746 q 1017 949 1221 949 l 339 949 q 136 746 136 949 q 339 543 136 543 l 1221 543 l 1221 746 z "},"\u0000":{"ha":0,"x_min":0,"x_max":0,"o":""},"\u001d":{"ha":0,"x_min":0,"x_max":0,"o":""}," ":{"ha":345,"x_min":0,"x_max":0,"o":""}," ":{"ha":345,"x_min":0,"x_max":0,"o":""},"!":{"ha":203,"x_min":68,"x_max":136,"o":"m 136 68 l 136 0 l 68 0 l 68 68 l 136 68 m 68 271 l 68 1017 l 136 1017 l 136 271 l 68 271 z "},"\"":{"ha":339,"x_min":68,"x_max":271,"o":"m 136 814 l 68 814 l 68 1017 l 136 1017 l 136 814 m 271 814 l 203 814 l 203 1017 l 271 1017 l 271 814 z "},"#":{"ha":1356,"x_min":68,"x_max":1289,"o":"m 339 814 l 1017 814 l 1017 1017 l 1085 1017 l 1085 814 l 1289 814 l 1289 746 l 1085 746 l 1085 271 l 1289 271 l 1289 203 l 1085 203 l 1085 0 l 1017 0 l 1017 203 l 339 203 l 339 0 l 271 0 l 271 203 l 68 203 l 68 271 l 271 271 l 271 746 l 68 746 l 68 814 l 271 814 l 271 1017 l 339 1017 l 339 814 m 1017 746 l 339 746 l 339 271 l 1017 271 l 1017 746 z "},"$":{"ha":1356,"x_min":68,"x_max":1289,"o":"m 339 949 q 136 746 136 949 q 339 543 136 543 l 644 543 l 644 949 l 339 949 m 339 0 q 68 271 68 0 l 136 271 q 339 68 136 68 l 644 68 l 644 475 l 339 475 q 68 746 68 475 q 339 1017 68 1017 l 644 1017 l 644 1153 l 712 1153 l 712 1017 l 1017 1017 q 1289 746 1289 1017 l 1221 746 q 1017 949 1221 949 l 712 949 l 712 543 l 1017 543 q 1289 271 1289 543 q 1017 0 1289 0 l 712 0 l 712 -136 l 644 -136 l 644 0 l 339 0 m 1017 68 q 1221 271 1221 68 q 1017 475 1221 475 l 712 475 l 712 68 l 1017 68 z "},"%":{"ha":1356,"x_min":9,"x_max":1348,"o":"m 9 0 l 1241 1017 l 1348 1017 l 115 0 l 9 0 m 203 746 q 107 786 147 746 q 68 882 68 825 q 107 978 68 938 q 203 1017 147 1017 q 299 978 260 1017 q 339 882 339 938 q 299 786 339 825 q 203 746 260 746 m 203 814 q 251 834 231 814 q 271 882 271 854 q 251 929 271 909 q 203 949 231 949 q 156 929 176 949 q 136 882 136 909 q 156 834 136 854 q 203 814 176 814 m 1153 0 q 1057 40 1097 0 q 1017 136 1017 79 q 1057 232 1017 192 q 1153 271 1097 271 q 1249 232 1209 271 q 1289 136 1289 192 q 1249 40 1289 79 q 1153 0 1209 0 m 1153 68 q 1201 88 1181 68 q 1221 136 1221 108 q 1201 183 1221 163 q 1153 203 1181 203 q 1105 183 1125 203 q 1085 136 1085 163 q 1105 88 1085 108 q 1153 68 1125 68 z "},"&":{"ha":1560,"x_min":68,"x_max":1492,"o":"m 1221 271 l 1221 475 l 339 475 q 136 271 136 475 q 339 68 136 68 l 1017 68 q 1221 271 1221 68 m 1289 271 q 1492 68 1289 68 l 1492 0 q 1255 113 1316 0 q 1017 0 1193 0 l 339 0 q 68 271 68 0 q 181 509 68 447 q 68 746 68 570 q 339 1017 68 1017 l 1017 1017 q 1289 746 1289 1017 l 1221 746 q 1017 949 1221 949 l 339 949 q 136 746 136 949 q 339 543 136 543 l 1221 543 l 1221 610 l 1289 610 l 1289 543 l 1492 543 l 1492 475 l 1289 475 l 1289 271 z "},"'":{"ha":203,"x_min":68,"x_max":136,"o":"m 136 814 l 68 814 l 68 1017 l 136 1017 l 136 814 z "},"(":{"ha":475,"x_min":68,"x_max":407,"o":"m 339 0 l 407 0 l 407 -68 l 339 -68 q 68 203 68 -68 l 68 814 q 339 1085 68 1085 l 407 1085 l 407 1017 l 339 1017 q 136 814 136 1017 l 136 203 q 339 0 136 0 z "},")":{"ha":475,"x_min":68,"x_max":407,"o":"m 136 1017 l 68 1017 l 68 1085 l 136 1085 q 407 814 407 1085 l 407 203 q 136 -68 407 -68 l 68 -68 l 68 0 l 136 0 q 339 203 339 0 l 339 814 q 136 1017 339 1017 z "},"*":{"ha":678,"x_min":58,"x_max":621,"o":"m 305 770 l 305 1017 l 373 1017 l 373 770 l 587 894 l 621 836 l 407 712 l 621 589 l 587 530 l 373 654 l 373 407 l 305 407 l 305 654 l 92 530 l 58 589 l 271 712 l 58 836 l 92 894 l 305 770 z "},"+":{"ha":882,"x_min":68,"x_max":814,"o":"m 407 475 l 68 475 l 68 543 l 407 543 l 407 882 l 475 882 l 475 543 l 814 543 l 814 475 l 475 475 l 475 136 l 407 136 l 407 475 z "},",":{"ha":203,"x_min":68,"x_max":136,"o":"m 136 -136 l 68 -136 l 68 68 l 136 68 l 136 -136 z "},"-":{"ha":882,"x_min":68,"x_max":814,"o":"m 68 475 l 68 543 l 814 543 l 814 475 l 68 475 z "},"­":{"ha":882,"x_min":68,"x_max":814,"o":"m 68 475 l 68 543 l 814 543 l 814 475 l 68 475 z "},".":{"ha":203,"x_min":68,"x_max":136,"o":"m 136 0 l 68 0 l 68 68 l 136 68 l 136 0 z "},"/":{"ha":1356,"x_min":9,"x_max":1348,"o":"m 9 0 l 1241 1017 l 1348 1017 l 115 0 l 9 0 z "},":":{"ha":203,"x_min":68,"x_max":136,"o":"m 136 0 l 68 0 l 68 68 l 136 68 l 136 0 m 136 627 l 68 627 l 68 694 l 136 694 l 136 627 z "},";":{"ha":203,"x_min":68,"x_max":136,"o":"m 136 -136 l 68 -136 l 68 68 l 136 68 l 136 -136 m 136 627 l 68 627 l 68 694 l 136 694 l 136 627 z "},";":{"ha":203,"x_min":68,"x_max":136,"o":"m 136 -136 l 68 -136 l 68 68 l 136 68 l 136 -136 m 136 627 l 68 627 l 68 694 l 136 694 l 136 627 z "},"<":{"ha":475,"x_min":68,"x_max":407,"o":"m 339 0 l 407 0 l 407 -68 l 339 -68 q 68 203 68 -68 l 68 814 q 339 1085 68 1085 l 407 1085 l 407 1017 l 339 1017 q 136 814 136 1017 l 136 203 q 339 0 136 0 z "},"=":{"ha":882,"x_min":68,"x_max":814,"o":"m 68 610 l 68 678 l 814 678 l 814 610 l 68 610 m 68 339 l 68 407 l 814 407 l 814 339 l 68 339 z "},">":{"ha":475,"x_min":68,"x_max":407,"o":"m 136 1017 l 68 1017 l 68 1085 l 136 1085 q 407 814 407 1085 l 407 203 q 136 -68 407 -68 l 68 -68 l 68 0 l 136 0 q 339 203 339 0 l 339 814 q 136 1017 339 1017 z "},"?":{"ha":1356,"x_min":68,"x_max":1289,"o":"m 339 949 q 136 746 136 949 l 68 746 q 339 1017 68 1017 l 1017 1017 q 1289 746 1289 1017 q 1017 475 1289 475 l 543 475 l 543 271 l 475 271 l 475 543 l 1017 543 q 1221 746 1221 543 q 1017 949 1221 949 l 339 949 m 543 68 l 543 0 l 475 0 l 475 68 l 543 68 z "},"@":{"ha":1085,"x_min":68,"x_max":1017,"o":"m 678 271 l 678 475 l 407 475 l 407 271 l 678 271 m 339 68 l 746 68 l 746 0 l 339 0 q 68 271 68 0 l 68 475 q 339 746 68 746 l 746 746 q 1017 475 1017 746 l 1017 203 l 339 203 l 339 543 l 746 543 l 746 271 l 949 271 l 949 475 q 746 678 949 678 l 339 678 q 136 475 136 678 l 136 271 q 339 68 136 68 z "},"A":{"ha":1356,"x_min":34,"x_max":1322,"o":"m 1032 339 l 678 907 l 324 339 l 1032 339 m 1074 271 l 282 271 l 113 0 l 34 0 l 678 1034 l 1322 0 l 1243 0 l 1074 271 z "},"B":{"ha":1356,"x_min":68,"x_max":1289,"o":"m 1017 68 q 1221 271 1221 68 q 1017 475 1221 475 l 136 475 l 136 68 l 1017 68 m 1221 746 q 1017 949 1221 949 l 136 949 l 136 543 l 1017 543 q 1221 746 1221 543 m 1289 271 q 1017 0 1289 0 l 68 0 l 68 1017 l 1017 1017 q 1289 746 1289 1017 q 1175 509 1289 570 q 1289 271 1289 447 z "},"C":{"ha":1356,"x_min":68,"x_max":1289,"o":"m 1017 68 q 1221 271 1221 68 l 1289 271 q 1017 0 1289 0 l 339 0 q 68 271 68 0 l 68 746 q 339 1017 68 1017 l 1017 1017 q 1289 746 1289 1017 l 1221 746 q 1017 949 1221 949 l 339 949 q 136 746 136 949 l 136 271 q 339 68 136 68 l 1017 68 z "},"D":{"ha":1356,"x_min":68,"x_max":1289,"o":"m 1017 68 q 1221 271 1221 68 l 1221 746 q 1017 949 1221 949 l 136 949 l 136 68 l 1017 68 m 1289 271 q 1017 0 1289 0 l 68 0 l 68 1017 l 1017 1017 q 1289 746 1289 1017 l 1289 271 z "},"E":{"ha":1356,"x_min":68,"x_max":1289,"o":"m 136 68 l 1289 68 l 1289 0 l 68 0 l 68 1017 l 1289 1017 l 1289 949 l 136 949 l 136 543 l 1221 543 l 1221 475 l 136 475 l 136 68 z "},"F":{"ha":1356,"x_min":68,"x_max":1289,"o":"m 1289 1017 l 1289 949 l 136 949 l 136 543 l 1221 543 l 1221 475 l 136 475 l 136 0 l 68 0 l 68 1017 l 1289 1017 z "},"G":{"ha":1356,"x_min":68,"x_max":1289,"o":"m 1017 1017 q 1289 746 1289 1017 l 1221 746 q 1017 949 1221 949 l 339 949 q 136 746 136 949 l 136 271 q 339 68 136 68 l 1017 68 q 1221 271 1221 68 l 1221 475 l 610 475 l 610 543 l 1289 543 l 1289 271 q 1017 0 1289 0 l 339 0 q 68 271 68 0 l 68 746 q 339 1017 68 1017 l 1017 1017 z "},"H":{"ha":1356,"x_min":68,"x_max":1289,"o":"m 136 475 l 136 0 l 68 0 l 68 1017 l 136 1017 l 136 543 l 1221 543 l 1221 1017 l 1289 1017 l 1289 0 l 1221 0 l 1221 475 l 136 475 z "},"I":{"ha":203,"x_min":68,"x_max":136,"o":"m 136 0 l 68 0 l 68 1017 l 136 1017 l 136 0 z "},"J":{"ha":1356,"x_min":68,"x_max":1289,"o":"m 339 0 q 68 271 68 0 l 136 271 q 339 68 136 68 l 1017 68 q 1221 271 1221 68 l 1221 1017 l 1289 1017 l 1289 271 q 1017 0 1289 0 l 339 0 z "},"K":{"ha":1356,"x_min":68,"x_max":1348,"o":"m 136 475 l 136 0 l 68 0 l 68 1017 l 136 1017 l 136 543 l 666 543 l 1241 1017 l 1348 1017 l 732 509 l 1348 0 l 1241 0 l 666 475 l 136 475 z "},"L":{"ha":1356,"x_min":68,"x_max":1289,"o":"m 136 68 l 1289 68 l 1289 0 l 68 0 l 68 1017 l 136 1017 l 136 68 z "},"M":{"ha":1356,"x_min":68,"x_max":1289,"o":"m 136 905 l 136 0 l 68 0 l 68 1047 l 678 552 l 1289 1047 l 1289 0 l 1221 0 l 1221 905 l 678 465 l 136 905 z "},"N":{"ha":1356,"x_min":68,"x_max":1289,"o":"m 136 905 l 136 0 l 68 0 l 68 1047 l 1221 112 l 1221 1017 l 1289 1017 l 1289 -30 l 136 905 z "},"O":{"ha":1356,"x_min":68,"x_max":1289,"o":"m 339 0 q 68 271 68 0 l 68 746 q 339 1017 68 1017 l 1017 1017 q 1289 746 1289 1017 l 1289 271 q 1017 0 1289 0 l 339 0 m 136 271 q 339 68 136 68 l 1017 68 q 1221 271 1221 68 l 1221 746 q 1017 949 1221 949 l 339 949 q 136 746 136 949 l 136 271 z "},"P":{"ha":1356,"x_min":68,"x_max":1289,"o":"m 1017 1017 q 1289 746 1289 1017 q 1017 475 1289 475 l 136 475 l 136 0 l 68 0 l 68 1017 l 1017 1017 m 1221 746 q 1017 949 1221 949 l 136 949 l 136 543 l 1017 543 q 1221 746 1221 543 z "},"Q":{"ha":1356,"x_min":68,"x_max":1289,"o":"m 136 271 q 339 68 136 68 l 969 68 l 909 128 l 957 176 l 1063 71 q 1221 271 1221 92 l 1221 746 q 1017 949 1221 949 l 339 949 q 136 746 136 949 l 136 271 m 339 0 q 68 271 68 0 l 68 746 q 339 1017 68 1017 l 1017 1017 q 1289 746 1289 1017 l 1289 271 q 1121 12 1289 58 l 1196 -63 l 1148 -111 l 1036 1 q 1017 0 1027 0 l 339 0 z "},"R":{"ha":1356,"x_min":68,"x_max":1289,"o":"m 1017 1017 q 1289 746 1289 1017 q 1175 509 1289 570 q 1289 271 1289 447 l 1289 0 l 1221 0 l 1221 271 q 1017 475 1221 475 l 136 475 l 136 0 l 68 0 l 68 1017 l 1017 1017 m 1221 746 q 1017 949 1221 949 l 136 949 l 136 543 l 1017 543 q 1221 746 1221 543 z "},"S":{"ha":1356,"x_min":68,"x_max":1289,"o":"m 339 0 q 68 271 68 0 l 136 271 q 339 68 136 68 l 1017 68 q 1221 271 1221 68 q 1017 475 1221 475 l 339 475 q 68 746 68 475 q 339 1017 68 1017 l 1017 1017 q 1289 746 1289 1017 l 1221 746 q 1017 949 1221 949 l 339 949 q 136 746 136 949 q 339 543 136 543 l 1017 543 q 1289 271 1289 543 q 1017 0 1289 0 l 339 0 z "},"T":{"ha":1356,"x_min":68,"x_max":1289,"o":"m 1289 1017 l 1289 949 l 712 949 l 712 0 l 644 0 l 644 949 l 68 949 l 68 1017 l 1289 1017 z "},"U":{"ha":1356,"x_min":68,"x_max":1289,"o":"m 1221 271 l 1221 1017 l 1289 1017 l 1289 271 q 1017 0 1289 0 l 339 0 q 68 271 68 0 l 68 1017 l 136 1017 l 136 271 q 339 68 136 68 l 1017 68 q 1221 271 1221 68 z "},"V":{"ha":1356,"x_min":34,"x_max":1322,"o":"m 678 -17 l 34 1017 l 113 1017 l 678 110 l 1243 1017 l 1322 1017 l 678 -17 z "},"W":{"ha":1831,"x_min":34,"x_max":1797,"o":"m 916 364 l 678 -17 l 34 1017 l 113 1017 l 678 110 l 876 427 l 509 1017 l 588 1017 l 916 491 l 1243 1017 l 1322 1017 l 955 427 l 1153 110 l 1718 1017 l 1797 1017 l 1153 -17 l 916 364 z "},"X":{"ha":1356,"x_min":9,"x_max":1348,"o":"m 678 465 l 115 0 l 9 0 l 625 509 l 9 1017 l 115 1017 l 678 553 l 1241 1017 l 1348 1017 l 732 509 l 1348 0 l 1241 0 l 678 465 z "},"Y":{"ha":1356,"x_min":9,"x_max":1348,"o":"m 644 492 l 9 1017 l 115 1017 l 678 553 l 1241 1017 l 1348 1017 l 712 492 l 712 0 l 644 0 l 644 492 z "},"Z":{"ha":1356,"x_min":0,"x_max":1356,"o":"m 198 68 l 1289 68 l 1289 0 l 0 0 l 1158 949 l 68 949 l 68 1017 l 1356 1017 l 198 68 z "},"[":{"ha":475,"x_min":68,"x_max":407,"o":"m 407 0 l 407 -68 l 68 -68 l 68 1085 l 407 1085 l 407 1017 l 136 1017 l 136 0 l 407 0 z "},"\\":{"ha":1356,"x_min":9,"x_max":1348,"o":"m 1241 0 l 9 1017 l 115 1017 l 1348 0 l 1241 0 z "},"]":{"ha":475,"x_min":68,"x_max":407,"o":"m 68 0 l 339 0 l 339 1017 l 68 1017 l 68 1085 l 407 1085 l 407 -68 l 68 -68 l 68 0 z "},"^":{"ha":203,"x_min":68,"x_max":136,"o":"m 136 814 l 68 814 l 68 1017 l 136 1017 l 136 814 z "},"_":{"ha":1356,"x_min":68,"x_max":1289,"o":"m 1289 0 l 68 0 l 68 68 l 1289 68 l 1289 0 z "},"`":{"ha":203,"x_min":68,"x_max":136,"o":"m 136 814 l 68 814 l 68 1017 l 136 1017 l 136 814 z "},"a":{"ha":1356,"x_min":34,"x_max":1322,"o":"m 1032 339 l 678 907 l 324 339 l 1032 339 m 1074 271 l 282 271 l 113 0 l 34 0 l 678 1034 l 1322 0 l 1243 0 l 1074 271 z "},"b":{"ha":1356,"x_min":68,"x_max":1289,"o":"m 1017 68 q 1221 271 1221 68 q 1017 475 1221 475 l 136 475 l 136 68 l 1017 68 m 1221 746 q 1017 949 1221 949 l 136 949 l 136 543 l 1017 543 q 1221 746 1221 543 m 1289 271 q 1017 0 1289 0 l 68 0 l 68 1017 l 1017 1017 q 1289 746 1289 1017 q 1175 509 1289 570 q 1289 271 1289 447 z "},"c":{"ha":1356,"x_min":68,"x_max":1289,"o":"m 1017 68 q 1221 271 1221 68 l 1289 271 q 1017 0 1289 0 l 339 0 q 68 271 68 0 l 68 746 q 339 1017 68 1017 l 1017 1017 q 1289 746 1289 1017 l 1221 746 q 1017 949 1221 949 l 339 949 q 136 746 136 949 l 136 271 q 339 68 136 68 l 1017 68 z "},"d":{"ha":1356,"x_min":68,"x_max":1289,"o":"m 1017 68 q 1221 271 1221 68 l 1221 746 q 1017 949 1221 949 l 136 949 l 136 68 l 1017 68 m 1289 271 q 1017 0 1289 0 l 68 0 l 68 1017 l 1017 1017 q 1289 746 1289 1017 l 1289 271 z "},"e":{"ha":1356,"x_min":68,"x_max":1289,"o":"m 136 68 l 1289 68 l 1289 0 l 68 0 l 68 1017 l 1289 1017 l 1289 949 l 136 949 l 136 543 l 1221 543 l 1221 475 l 136 475 l 136 68 z "},"f":{"ha":1356,"x_min":68,"x_max":1289,"o":"m 1289 1017 l 1289 949 l 136 949 l 136 543 l 1221 543 l 1221 475 l 136 475 l 136 0 l 68 0 l 68 1017 l 1289 1017 z "},"g":{"ha":1356,"x_min":68,"x_max":1289,"o":"m 1017 1017 q 1289 746 1289 1017 l 1221 746 q 1017 949 1221 949 l 339 949 q 136 746 136 949 l 136 271 q 339 68 136 68 l 1017 68 q 1221 271 1221 68 l 1221 475 l 610 475 l 610 543 l 1289 543 l 1289 271 q 1017 0 1289 0 l 339 0 q 68 271 68 0 l 68 746 q 339 1017 68 1017 l 1017 1017 z "},"h":{"ha":1356,"x_min":68,"x_max":1289,"o":"m 136 475 l 136 0 l 68 0 l 68 1017 l 136 1017 l 136 543 l 1221 543 l 1221 1017 l 1289 1017 l 1289 0 l 1221 0 l 1221 475 l 136 475 z "},"i":{"ha":203,"x_min":68,"x_max":136,"o":"m 136 0 l 68 0 l 68 1017 l 136 1017 l 136 0 z "},"j":{"ha":1356,"x_min":68,"x_max":1289,"o":"m 339 0 q 68 271 68 0 l 136 271 q 339 68 136 68 l 1017 68 q 1221 271 1221 68 l 1221 1017 l 1289 1017 l 1289 271 q 1017 0 1289 0 l 339 0 z "},"k":{"ha":1356,"x_min":68,"x_max":1348,"o":"m 136 475 l 136 0 l 68 0 l 68 1017 l 136 1017 l 136 543 l 666 543 l 1241 1017 l 1348 1017 l 732 509 l 1348 0 l 1241 0 l 666 475 l 136 475 z "},"l":{"ha":1356,"x_min":68,"x_max":1289,"o":"m 136 68 l 1289 68 l 1289 0 l 68 0 l 68 1017 l 136 1017 l 136 68 z "},"m":{"ha":1356,"x_min":68,"x_max":1289,"o":"m 136 905 l 136 0 l 68 0 l 68 1047 l 678 552 l 1289 1047 l 1289 0 l 1221 0 l 1221 905 l 678 465 l 136 905 z "},"n":{"ha":1356,"x_min":68,"x_max":1289,"o":"m 136 905 l 136 0 l 68 0 l 68 1047 l 1221 112 l 1221 1017 l 1289 1017 l 1289 -30 l 136 905 z "},"o":{"ha":1356,"x_min":68,"x_max":1289,"o":"m 339 0 q 68 271 68 0 l 68 746 q 339 1017 68 1017 l 1017 1017 q 1289 746 1289 1017 l 1289 271 q 1017 0 1289 0 l 339 0 m 136 271 q 339 68 136 68 l 1017 68 q 1221 271 1221 68 l 1221 746 q 1017 949 1221 949 l 339 949 q 136 746 136 949 l 136 271 z "},"p":{"ha":1356,"x_min":68,"x_max":1289,"o":"m 1017 1017 q 1289 746 1289 1017 q 1017 475 1289 475 l 136 475 l 136 0 l 68 0 l 68 1017 l 1017 1017 m 1221 746 q 1017 949 1221 949 l 136 949 l 136 543 l 1017 543 q 1221 746 1221 543 z "},"q":{"ha":1356,"x_min":68,"x_max":1289,"o":"m 136 271 q 339 68 136 68 l 969 68 l 909 128 l 957 176 l 1063 71 q 1221 271 1221 92 l 1221 746 q 1017 949 1221 949 l 339 949 q 136 746 136 949 l 136 271 m 339 0 q 68 271 68 0 l 68 746 q 339 1017 68 1017 l 1017 1017 q 1289 746 1289 1017 l 1289 271 q 1121 12 1289 58 l 1196 -63 l 1148 -111 l 1036 1 q 1017 0 1027 0 l 339 0 z "},"r":{"ha":1356,"x_min":68,"x_max":1289,"o":"m 1017 1017 q 1289 746 1289 1017 q 1175 509 1289 570 q 1289 271 1289 447 l 1289 0 l 1221 0 l 1221 271 q 1017 475 1221 475 l 136 475 l 136 0 l 68 0 l 68 1017 l 1017 1017 m 1221 746 q 1017 949 1221 949 l 136 949 l 136 543 l 1017 543 q 1221 746 1221 543 z "},"s":{"ha":1356,"x_min":68,"x_max":1289,"o":"m 339 0 q 68 271 68 0 l 136 271 q 339 68 136 68 l 1017 68 q 1221 271 1221 68 q 1017 475 1221 475 l 339 475 q 68 746 68 475 q 339 1017 68 1017 l 1017 1017 q 1289 746 1289 1017 l 1221 746 q 1017 949 1221 949 l 339 949 q 136 746 136 949 q 339 543 136 543 l 1017 543 q 1289 271 1289 543 q 1017 0 1289 0 l 339 0 z "},"t":{"ha":1356,"x_min":68,"x_max":1289,"o":"m 1289 1017 l 1289 949 l 712 949 l 712 0 l 644 0 l 644 949 l 68 949 l 68 1017 l 1289 1017 z "},"u":{"ha":1356,"x_min":68,"x_max":1289,"o":"m 1221 271 l 1221 1017 l 1289 1017 l 1289 271 q 1017 0 1289 0 l 339 0 q 68 271 68 0 l 68 1017 l 136 1017 l 136 271 q 339 68 136 68 l 1017 68 q 1221 271 1221 68 z "},"v":{"ha":1356,"x_min":34,"x_max":1322,"o":"m 678 -17 l 34 1017 l 113 1017 l 678 110 l 1243 1017 l 1322 1017 l 678 -17 z "},"w":{"ha":1831,"x_min":34,"x_max":1797,"o":"m 916 364 l 678 -17 l 34 1017 l 113 1017 l 678 110 l 876 427 l 509 1017 l 588 1017 l 916 491 l 1243 1017 l 1322 1017 l 955 427 l 1153 110 l 1718 1017 l 1797 1017 l 1153 -17 l 916 364 z "},"x":{"ha":1356,"x_min":9,"x_max":1348,"o":"m 678 465 l 115 0 l 9 0 l 625 509 l 9 1017 l 115 1017 l 678 553 l 1241 1017 l 1348 1017 l 732 509 l 1348 0 l 1241 0 l 678 465 z "},"y":{"ha":1356,"x_min":9,"x_max":1348,"o":"m 644 492 l 9 1017 l 115 1017 l 678 553 l 1241 1017 l 1348 1017 l 712 492 l 712 0 l 644 0 l 644 492 z "},"z":{"ha":1356,"x_min":0,"x_max":1356,"o":"m 198 68 l 1289 68 l 1289 0 l 0 0 l 1158 949 l 68 949 l 68 1017 l 1356 1017 l 198 68 z "},"{":{"ha":610,"x_min":68,"x_max":543,"o":"m 339 203 q 543 0 339 0 l 543 -68 q 271 203 271 -68 l 271 271 q 68 475 271 475 l 68 543 q 271 746 271 543 l 271 814 q 543 1085 271 1085 l 543 1017 q 339 814 339 1017 l 339 746 q 226 509 339 570 q 339 271 339 447 l 339 203 z "},"|":{"ha":203,"x_min":68,"x_max":136,"o":"m 136 -68 l 68 -68 l 68 1085 l 136 1085 l 136 -68 z "},"}":{"ha":610,"x_min":68,"x_max":543,"o":"m 339 203 q 68 -68 339 -68 l 68 0 q 271 203 271 0 l 271 271 q 385 509 271 447 q 271 746 271 570 l 271 814 q 68 1017 271 1017 l 68 1085 q 339 814 339 1085 l 339 746 q 543 543 339 543 l 543 475 q 339 271 339 475 l 339 203 z "},"~":{"ha":882,"x_min":68,"x_max":814,"o":"m 68 475 l 68 543 l 814 543 l 814 475 l 68 475 z "}}}
